<svg id="Layer_1" enable-background="new 0 0 512 512" height="512" viewBox="0 0 512 512" width="512" xmlns="http://www.w3.org/2000/svg"><g id="XMLID_1836_"><g id="XMLID_1122_"><path id="XMLID_872_" d="m454 502h-396c-26.51 0-48-21.49-48-48v-396c0-26.51 21.49-48 48-48h396c26.51 0 48 21.49 48 48v396c0 26.51-21.49 48-48 48z" fill="#33d6f5"/></g><g id="XMLID_1121_"><path id="XMLID_162_" d="m58 58h396v396h-396z" fill="#fff"/></g><g id="XMLID_1591_"><g id="XMLID_1160_"><g id="XMLID_2126_"><g id="XMLID_2129_"><path d="m151.155 119.819-7.907 7.907c-41.664 41.664-41.664 109.215 0 150.879l90.148 90.148c41.664 41.664 109.215 41.664 150.879 0l7.907-7.907c10.425-10.425 10.425-27.328 0-37.753l-38.632-38.632c-10.425-10.425-27.328-10.425-37.753 0l-25.964 25.964c-3.515 3.515-9.213 3.515-12.728 0l-75.116-75.116c-3.515-3.515-3.515-9.213 0-12.728l25.964-25.964c10.425-10.425 10.425-27.328 0-37.753l-39.044-39.044c-10.426-10.426-27.329-10.426-37.754-.001z" fill="#33d6f5"/></g></g></g><g id="XMLID_2187_"><g id="XMLID_2189_"><path id="XMLID_19_" d="m353.549 284.46c-10.425-10.425-27.328-10.425-37.753 0l-23.273 23.273 74.817 74.817c5.988-3.935 11.669-8.532 16.934-13.798l7.907-7.907c10.425-10.425 10.425-27.328 0-37.753z" fill="#fff"/></g><g id="XMLID_2190_"><path id="XMLID_20_" d="m204.679 219.889 23.273-23.273c10.425-10.425 10.425-27.328 0-37.753l-39.044-39.044c-10.425-10.425-27.328-10.425-37.753 0l-7.907 7.907c-5.266 5.266-9.863 10.946-13.798 16.934z" fill="#fff"/></g></g><g id="XMLID_873_"><path id="XMLID_876_" d="m454 0h-396c-31.981 0-58 26.019-58 58v396c0 31.981 26.019 58 58 58h396c31.981 0 58-26.019 58-58v-396c0-31.981-26.019-58-58-58zm38 454c0 20.953-17.047 38-38 38h-396c-20.953 0-38-17.047-38-38v-396c0-20.953 17.047-38 38-38h396c20.953 0 38 17.047 38 38z"/><path id="XMLID_877_" d="m454 48h-396c-5.523 0-10 4.477-10 10v396c0 5.523 4.477 10 10 10h153.127c5.523 0 10-4.477 10-10s-4.477-10-10-10h-143.127v-376h376v376h-142.873c-5.523 0-10 4.477-10 10s4.477 10 10 10h152.873c5.523 0 10-4.477 10-10v-396c0-5.523-4.477-10-10-10z"/><path id="XMLID_878_" d="m256.13 444c-2.64 0-5.21 1.07-7.07 2.93s-2.93 4.44-2.93 7.07 1.07 5.21 2.93 7.07 4.44 2.93 7.07 2.93 5.2-1.07 7.07-2.93c1.86-1.86 2.93-4.44 2.93-7.07s-1.07-5.21-2.93-7.07-4.44-2.93-7.07-2.93z"/><path id="XMLID_881_" d="m235.023 203.687c14.307-14.308 14.307-37.588 0-51.896l-39.043-39.043c-14.309-14.309-37.588-14.308-51.896 0l-7.907 7.907c-45.497 45.497-45.497 119.525 0 165.021l90.148 90.148c22.748 22.748 52.629 34.122 82.511 34.122 29.881 0 59.762-11.374 82.511-34.122l7.907-7.907c14.308-14.308 14.308-37.588 0-51.896l-38.632-38.632c-14.308-14.308-37.588-14.308-51.896 0l-25.256 25.257-73.702-73.702zm-84.704-68.89 7.907-7.907c3.254-3.255 7.53-4.882 11.805-4.882s8.551 1.628 11.806 4.883l39.043 39.043c6.51 6.509 6.51 17.101 0 23.611l-16.202 16.202-62.133-62.133c2.391-3.053 4.965-6.008 7.774-8.817zm172.548 156.734c6.51-6.51 17.103-6.509 23.611 0l38.632 38.632c6.51 6.509 6.51 17.102 0 23.611l-7.907 7.907c-2.809 2.809-5.764 5.383-8.816 7.774l-61.722-61.721zm-52.834 25.965c5.873 5.874 14.66 7.071 21.743 3.632l59.19 59.19c-36.015 17.399-80.659 11.204-110.499-18.636l-90.148-90.148c-29.84-29.84-36.035-74.483-18.636-110.498l59.602 59.602c-3.438 7.083-2.24 15.868 3.632 21.742z"/></g></g></g></svg>